<svg xmlns="http://www.w3.org/2000/svg" width="22.899" height="24" viewBox="0 0 22.899 24"><path d="M19.55,24H3.35a1.5,1.5,0,0,1-1.491-1.344L.009,5.086A1.486,1.486,0,0,1,.563,3.758,17.266,17.266,0,0,1,11.293,0h.314A17.267,17.267,0,0,1,22.338,3.758a1.488,1.488,0,0,1,.553,1.328L21.04,22.658A1.5,1.5,0,0,1,19.55,24ZM11.45,6.036a.522.522,0,0,1,.474.306L12.7,8.659A.5.5,0,0,0,13.171,9H19.45a.5.5,0,0,0,.5-.5V5.363a.5.5,0,0,0-.226-.419,14.439,14.439,0,0,0-2.074-1.12.5.5,0,0,0-.2-.043.491.491,0,0,0-.2.041.5.5,0,0,0-.274.293L16.239,6.2a.75.75,0,1,1-1.414-.5L15.6,3.512A.394.394,0,0,0,15.33,3a14.7,14.7,0,0,0-2.588-.443l-.042,0a.5.5,0,0,0-.5.5V4a.75.75,0,1,1-1.5,0V3.06a.5.5,0,0,0-.5-.5l-.042,0A14.7,14.7,0,0,0,7.57,3a.392.392,0,0,0-.27.511L8.075,5.7a.75.75,0,1,1-1.414.5L5.924,4.119a.5.5,0,0,0-.472-.333.5.5,0,0,0-.2.043A14.444,14.444,0,0,0,3.175,4.949a.5.5,0,0,0-.226.418V8.5a.5.5,0,0,0,.5.5H9.73a.5.5,0,0,0,.473-.342l.772-2.317A.522.522,0,0,1,11.45,6.036Z" transform="translate(0 0)" fill="#fff"/></svg>