<svg xmlns="http://www.w3.org/2000/svg" width="24" height="26.182" viewBox="0 0 24 26.182"><g transform="translate(0 0)"><path d="M2.455,6A2.462,2.462,0,0,0,4.909,3.536,6.688,6.688,0,0,0,3.521.492a1.4,1.4,0,0,0-2.134,0A6.679,6.679,0,0,0,0,3.536,2.462,2.462,0,0,0,2.455,6Z" transform="translate(2.455 0)" fill="#fff"/><path d="M2.455,6A2.462,2.462,0,0,0,4.909,3.536,6.688,6.688,0,0,0,3.521.492a1.4,1.4,0,0,0-2.134,0A6.679,6.679,0,0,0,0,3.536,2.462,2.462,0,0,0,2.455,6Z" transform="translate(16.636 0)" fill="#fff"/><path d="M2.455,6A2.462,2.462,0,0,0,4.909,3.536,6.688,6.688,0,0,0,3.521.492a1.4,1.4,0,0,0-2.134,0A6.679,6.679,0,0,0,0,3.536,2.462,2.462,0,0,0,2.455,6Z" transform="translate(9.545 0)" fill="#fff"/><path d="M21.273,4.909a.545.545,0,0,1-.545-.545V1.091A1.091,1.091,0,0,0,19.636,0H18.545a1.091,1.091,0,0,0-1.091,1.091V4.364a.545.545,0,0,1-.545.545H14.182a.545.545,0,0,1-.545-.545V1.091A1.091,1.091,0,0,0,12.545,0H11.455a1.091,1.091,0,0,0-1.091,1.091V4.364a.545.545,0,0,1-.545.545H7.091a.545.545,0,0,1-.545-.545V1.091A1.091,1.091,0,0,0,5.455,0H4.364A1.091,1.091,0,0,0,3.273,1.091V4.364a.545.545,0,0,1-.545.545A2.727,2.727,0,0,0,0,7.636v.392a2.128,2.128,0,0,0,1.917,2.117A2.473,2.473,0,0,0,4.222,9.072a1.439,1.439,0,0,1,1.2-.645A1.527,1.527,0,0,1,6.708,9.1a2.458,2.458,0,0,0,4.036,0,1.568,1.568,0,0,1,2.509,0,2.458,2.458,0,0,0,4.036,0,1.509,1.509,0,0,1,1.286-.675,1.439,1.439,0,0,1,1.2.645,2.473,2.473,0,0,0,2.305,1.073A2.128,2.128,0,0,0,24,8.028V7.636A2.727,2.727,0,0,0,21.273,4.909Z" transform="translate(0 7.091)" fill="#fff"/><path d="M23.255,1.1a3.767,3.767,0,0,1-1.007.244A4.123,4.123,0,0,1,18.92.16a.545.545,0,0,0-.779.008,4,4,0,0,1-2.875,1.2A4.087,4.087,0,0,1,12.385.175a.545.545,0,0,0-.77,0,4.091,4.091,0,0,1-5.776,0,.545.545,0,0,0-.764,0A4.132,4.132,0,0,1,1.756,1.348,3.767,3.767,0,0,1,.749,1.1a.545.545,0,0,0-.749.5V5.932A2.727,2.727,0,0,0,2.727,8.659H21.273A2.727,2.727,0,0,0,24,5.932V1.605a.545.545,0,0,0-.745-.507Z" transform="translate(0 17.523)" fill="#fff"/></g></svg>