<svg xmlns="http://www.w3.org/2000/svg" width="32" height="22.923" viewBox="0 0 32 22.923"><g transform="translate(0 -1.089)"><path d="M0,15.437a1.846,1.846,0,1,0,3.692,0v-5.3a.613.613,0,0,1,.82-.578l11.077,3.909a1.253,1.253,0,0,0,.82,0L31.178,8.255a1.231,1.231,0,0,0,.047-2.3L16.456.087a1.231,1.231,0,0,0-.911,0L.776,5.951A1.231,1.231,0,0,0,0,7.117Z" transform="translate(0 1.089)" fill="#fff"/><path d="M18.533,7.672a1.231,1.231,0,0,0,.822-1.162V1.23A1.231,1.231,0,0,0,17.713.071L9.671,2.9,1.642.071A1.231,1.231,0,0,0,0,1.23V6.522A1.231,1.231,0,0,0,.822,7.684L7.153,9.919a7.569,7.569,0,0,0,5.034,0Z" transform="translate(6.329 13.662)" fill="#fff"/></g></svg>