<svg xmlns="http://www.w3.org/2000/svg" width="26" height="25.968" viewBox="0 0 26 25.968"><path d="M13.344,24.621a.542.542,0,0,0-.692,0,5.555,5.555,0,0,1-7.252,0,.541.541,0,0,0-.693,0,5.549,5.549,0,0,1-3.623,1.346,1.083,1.083,0,1,1,0-2.166A4.031,4.031,0,0,0,4.21,22.045a1.142,1.142,0,0,1,1.676-.025A4.058,4.058,0,0,0,9.027,23.8a4.033,4.033,0,0,0,3.128-1.757,1.142,1.142,0,0,1,1.676-.025A4.056,4.056,0,0,0,16.972,23.8,4.029,4.029,0,0,0,20.1,22.043a1.141,1.141,0,0,1,1.674-.023A4.061,4.061,0,0,0,24.917,23.8a1.083,1.083,0,1,1,0,2.166,5.56,5.56,0,0,1-3.627-1.346.541.541,0,0,0-.693,0,5.555,5.555,0,0,1-7.252,0Zm12.315-2.9a3.19,3.19,0,0,0-.75-.087c-.542,0-.891-.305-1.49-1.014a3.274,3.274,0,0,0-4.983.023c-.579.685-.928.991-1.47.991s-.89-.305-1.49-1.014a3.272,3.272,0,0,0-4.983.025c-.579.684-.927.989-1.469.989s-.891-.306-1.49-1.014a3.274,3.274,0,0,0-4.983.025c-.578.684-.926.989-1.468.989a3.229,3.229,0,0,0-.75.084.27.27,0,0,1-.231-.05.274.274,0,0,1-.1-.213V20.291a1.085,1.085,0,0,1,.379-.823,10.932,10.932,0,0,1,3.635-1.9.542.542,0,0,0,.368-.553q-.049-.666-.049-1.335A16.2,16.2,0,0,1,6.106,8.1a.271.271,0,0,0-.325-.383L1.014,9.383a.6.6,0,0,1-.784-.65,4.914,4.914,0,0,1,3-3.453A5.871,5.871,0,0,1,6,4.732.269.269,0,0,0,6.2,4.259L2.581,1.09A.593.593,0,0,1,2.817.07,4.959,4.959,0,0,1,7.11,1.41,5.793,5.793,0,0,1,8.728,3.685a.271.271,0,0,0,.48.053,5.8,5.8,0,0,1,2.071-1.864,4.958,4.958,0,0,1,4.481-.381.593.593,0,0,1,.01,1.047L10.9,5.216a.271.271,0,0,0,.04.493,5.849,5.849,0,0,1,2.251,1.482A4.9,4.9,0,0,1,14.7,11.5a.6.6,0,0,1-.975.316L9.152,7.8a.272.272,0,0,0-.434.125,14.878,14.878,0,0,0-.593,4.234,15.005,15.005,0,0,0,.5,3.905.543.543,0,0,0,.587.4A32.763,32.763,0,0,1,13,16.218c.125,0,8.785-.076,12.627,3.25a1.086,1.086,0,0,1,.374.823v1.166a.272.272,0,0,1-.271.274A.266.266,0,0,1,25.659,21.722Z" transform="translate(0 0)" fill="#fff"/></svg>