<svg xmlns="http://www.w3.org/2000/svg" width="26" height="26.002" viewBox="0 0 26 26.002"><g transform="translate(0 0.002)"><path d="M.813,10.564h9.75a.812.812,0,0,0,.813-.812v-8.4A1.358,1.358,0,0,0,9.943,0,10.292,10.292,0,0,0,0,9.752.812.812,0,0,0,.813,10.564Z" transform="translate(0 -0.002)" fill="#fff"/><circle cx="1.896" cy="1.896" r="1.896" transform="translate(4.063 22.208)" fill="#fff"/><path d="M7.12,0H.27A.271.271,0,0,0,.082.465,2.994,2.994,0,0,1,.87,1.776a.542.542,0,0,0,.52.391H6a.542.542,0,0,0,.52-.391A2.984,2.984,0,0,1,7.309.465.271.271,0,0,0,7.12,0Z" transform="translate(7.95 21.503)" fill="#fff"/><path d="M24.917.007H23.654a3.24,3.24,0,0,0-3.164,2.506L19.163,8.146a.542.542,0,0,1-.528.418H.813A.811.811,0,0,0,.1,9.765l3.25,5.958a.811.811,0,0,0,.713.424H16.6a.542.542,0,0,1,.526.665l-.175.746a.394.394,0,0,0,.385.486,2.957,2.957,0,0,1,1.314.307.27.27,0,0,0,.236,0,.265.265,0,0,0,.147-.183L22.6,3a1.083,1.083,0,0,1,1.055-.835h1.263a1.083,1.083,0,1,0,0-2.167Z" transform="translate(0 3.08)" fill="#fff"/><circle cx="1.896" cy="1.896" r="1.896" transform="translate(15.438 22.208)" fill="#fff"/></g></svg>