<?xml version="1.0" encoding="utf-8"?>
<!-- Generator: Adobe Illustrator 24.0.2, SVG Export Plug-In . SVG Version: 6.00 Build 0)  -->
<svg version="1.1" id="Layer_1" xmlns="http://www.w3.org/2000/svg" xmlns:xlink="http://www.w3.org/1999/xlink" x="0px" y="0px"
	 viewBox="0 0 260 61.1" style="enable-background:new 0 0 260 61.1;" xml:space="preserve">
<style type="text/css">
	.st0{fill:#FFFFFF;}
	.st1{fill:#FF9A01;}
	.st2{fill:#EA7023;}
	.st3{fill:#FCC731;}
	.st4{fill:#DA5133;}
</style>
<g id="Group_14" transform="translate(0 0)">
	<path id="Fill_1" class="st0" d="M233.3,43.5L233.3,43.5c-2.3,0-4.6-0.5-6.7-1.4l3.4-24.2h3.9l-1,7.2c1.1-0.5,2.3-0.7,3.5-0.7
		c2-0.1,3.8,0.7,5.2,2.1c1,1.2,1.4,2.7,1.1,4.2l-0.9,6.7c-0.4,2-1.5,3.7-3.1,4.8C236.9,43.1,235.1,43.6,233.3,43.5z M235.2,27.7
		c-1,0-2,0.2-2.9,0.7l-1.6,11.4c0.8,0.3,1.7,0.5,2.5,0.5c1,0,1.9-0.2,2.8-0.6c0.9-0.5,1.5-1.3,1.6-2.2l1-6.9
		c0.1-0.7-0.2-1.3-0.6-1.8C237.3,28,236.3,27.6,235.2,27.7z M95.9,43.5c-2.4,0-4.2-0.6-5.3-1.8c-1-1.2-1.5-2.8-1.3-4.3l0.9-6.7
		c0.3-1.9,1.3-3.6,2.9-4.7c1.5-1.1,3.3-1.6,5.2-1.6c1.1,0,2.2,0.2,3.2,0.7l1-7.2h3.9l-3.4,24.2C100.8,43,98.4,43.4,95.9,43.5z
		 M98.4,27.7c-0.9,0-1.9,0.2-2.7,0.7c-0.8,0.5-1.4,1.2-1.6,2.1l-1,6.9c-0.1,0.7,0.1,1.4,0.6,1.9c0.8,0.7,1.9,1.1,3.1,1
		c0.9,0,1.8-0.2,2.7-0.5l1.6-11.4C100.3,27.9,99.4,27.6,98.4,27.7z M209.2,43.2L209.2,43.2c-1.4,0-2.8-0.4-4-1.1
		c-1.2-0.7-2.1-1.9-2.6-3.3l3.2-1.9c0.7,1.6,2.3,2.6,4,2.6c1.3,0.1,2.5-0.8,2.8-2.1c0.2-1.4-1.4-1.7-2.6-2c-1.4-0.2-2.8-0.7-4-1.5
		c-1.4-0.9-2-2.6-1.7-4.2c0.2-1.8,1.3-3.4,2.8-4.3c1.4-0.8,3.1-1.3,4.7-1.3c2.2,0,4.2,1,5.6,2.6l-2.7,2.5c-1-1-2.4-1.6-3.8-1.6
		c-1.5,0-2.6,0.6-2.8,1.7c-0.1,0.4,0,0.8,0.2,1.2c0.5,0.8,1.9,1.1,2.8,1.2c1.4,0.2,2.7,0.7,3.9,1.5c1.2,1,1.7,2.5,1.4,4
		c-0.2,1.7-1.1,3.3-2.6,4.3C212.5,42.7,210.9,43.2,209.2,43.2z M192.6,43.2L192.6,43.2c-2.5,0-4.4-0.7-5.5-1.9c-1-1.2-1.4-2.9-1-4.4
		l1.7-12.2h3.9L190,36.9c-0.1,0.7,0.1,1.4,0.6,1.9c0.8,0.7,1.8,1.1,2.9,1c1,0,1.9-0.2,2.8-0.6l2-14.6h3.8l-2.4,17.1
		C197.5,42.6,195.1,43.2,192.6,43.2z M174.5,43.2c-2,0.1-3.9-0.7-5.3-2.1c-1-1.2-1.4-2.7-1.1-4.2l0.9-6.4c0.6-4.3,4.6-6.3,8.1-6.3
		c1.9-0.1,3.8,0.7,5.2,2.1c1,1.2,1.4,2.7,1.1,4.2l-0.9,6.4c-0.3,1.9-1.3,3.6-2.9,4.7C178.1,42.6,176.3,43.2,174.5,43.2L174.5,43.2z
		 M176.7,28c-1.6,0-3.4,0.8-3.7,2.5l-0.9,6.4c-0.1,0.6,0.1,1.3,0.5,1.7c0.7,0.7,1.5,1,2.5,1c1.6,0,3.4-1,3.6-2.7l0.9-6.4
		c0.1-0.6-0.1-1.1-0.4-1.6C178.5,28.3,177.6,27.9,176.7,28L176.7,28z M251,43.1c-1.9,0.1-3.8-0.7-5.1-2.1c-1-1.2-1.4-2.8-1.1-4.3
		l0.8-6c0.6-4.4,4.6-6.5,8.1-6.5c1.9-0.1,3.8,0.6,5.1,2c1,1.2,1.4,2.8,1.1,4.3c-0.2,1.8-1.2,3.3-2.7,4.3c-1.5,1-3.2,1.5-5,1.5
		c-1.2,0-2.4-0.2-3.5-0.8l-0.1,1.1c-0.1,0.7,0,1.4,0.5,1.9c0.7,0.7,1.6,1,2.5,1c1.5,0,2.9-0.7,3.8-1.8l2.5,1.8
		C256.2,41.8,253.6,43.1,251,43.1z M253.1,27.9c-0.9,0-1.7,0.2-2.4,0.7c-0.7,0.5-1.2,1.3-1.3,2.1l-0.2,1.8c1,0.4,2.1,0.6,3.2,0.6
		c1.6,0,3.5-0.7,3.7-2.5c0.1-0.7-0.1-1.3-0.5-1.8C255,28.2,254.1,27.9,253.1,27.9z M113.4,43.1c-1.9,0.1-3.8-0.7-5.1-2.1
		c-1-1.2-1.4-2.8-1.1-4.3l0.8-6c0.6-4.5,4.6-6.5,8.1-6.5c1.9-0.1,3.8,0.7,5.1,2c1,1.2,1.4,2.8,1.1,4.3c-0.2,1.8-1.2,3.3-2.7,4.3
		c-1.5,1-3.2,1.5-5,1.5c-1.2,0-2.4-0.2-3.5-0.8l-0.1,1.1c-0.1,0.7,0,1.4,0.5,1.9c0.7,0.7,1.6,1,2.5,1c1.5,0,2.9-0.7,3.8-1.8l2.5,1.8
		C118.6,41.8,116.1,43.1,113.4,43.1z M115.6,27.9c-0.9,0-1.7,0.2-2.4,0.7c-0.7,0.5-1.2,1.3-1.3,2.1l-0.2,1.8c1,0.4,2.1,0.6,3.2,0.6
		c1.6,0,3.5-0.7,3.7-2.5c0.1-0.7-0.1-1.3-0.5-1.8C117.4,28.2,116.5,27.9,115.6,27.9z M59.5,43.1c-1.9,0.1-3.8-0.7-5.1-2.1
		c-1-1.2-1.4-2.8-1.1-4.3l0.8-6c0.6-4.5,4.6-6.5,8.1-6.5c1.9-0.1,3.8,0.7,5.1,2c1,1.2,1.4,2.8,1.1,4.3c-0.2,1.8-1.2,3.3-2.7,4.3
		c-1.5,1-3.2,1.5-5,1.5c-1.2,0-2.4-0.2-3.5-0.8l-0.1,1.1c-0.1,0.7,0,1.4,0.5,1.9c0.7,0.7,1.6,1,2.5,1c1.5,0,2.9-0.7,3.8-1.8l2.5,1.8
		C64.7,41.8,62.2,43.1,59.5,43.1z M61.7,27.9c-0.9,0-1.7,0.2-2.4,0.7c-0.7,0.5-1.2,1.3-1.3,2.1l-0.2,1.8c1,0.4,2.1,0.6,3.2,0.6
		c1.6,0,3.5-0.7,3.7-2.5c0.1-0.7-0.1-1.3-0.5-1.8C63.5,28.2,62.6,27.9,61.7,27.9z M220.6,43.1c-0.6,0-1.3-0.2-1.7-0.7
		c-0.4-0.5-0.6-1.2-0.5-1.8c0.2-1.5,1.4-2.5,2.9-2.6c1.2-0.1,2.2,0.9,2.3,2.1c0,0.2,0,0.3,0,0.5C223.3,41.9,222.1,43,220.6,43.1z
		 M159.9,42.9h-4L152,24.6h4.1l2.2,10.6l0.1,3.6h0.2l1.2-3.6l5-10.6h4.1L159.9,42.9z M137,42.9h-13l-1.3-2.3l10.9-12.3H125l0.5-3.7
		H138l1.2,2.3l-10.8,12.2h9.1L137,42.9L137,42.9z M74.3,42.9h-3.9l2.4-17c2.1-0.9,4.3-1.4,6.6-1.5c2.6,0,4.7,0.7,5.9,2.1
		c1,1.2,1.4,2.8,1.1,4.4l-1.7,12h-3.8l1.7-12c0.1-0.7-0.1-1.3-0.6-1.8c-0.8-0.7-1.9-1.1-3-1c-0.9,0-1.9,0.2-2.7,0.6L74.3,42.9
		L74.3,42.9z M45.7,42.9h-3.9l1.7-12.1c0.3-2.4,1.9-4.5,4.2-5.5c0.6-0.3,1.2-0.5,1.8-0.6c0,0,0.1,0,0.1,0c0,0,0.1,0,0.1,0
		c0.6-0.1,1.1-0.2,1.7-0.1c0.7,0,1.4,0.1,2,0.2l-0.5,3.4c-0.4-0.1-0.9-0.2-1.3-0.2c-1.9,0-4,1-4.2,2.9L45.7,42.9L45.7,42.9z
		 M149.8,34.4H140l0.6-3.9h9.8L149.8,34.4L149.8,34.4z"/>
	<path id="Fill_3" class="st1" d="M106,61.1L106,61.1l-0.4-0.5c0.1-0.1,0.3-0.1,0.4-0.2c0.1-0.1,0.2-0.2,0.2-0.3
		c0.1-0.1,0.1-0.2,0.1-0.4c0-0.1,0-0.3,0-0.4v-0.4h-0.6v-1.5h1.4v1.9c0,0.4-0.1,0.8-0.3,1.1C106.7,60.8,106.4,61,106,61.1L106,61.1z
		 M75.6,61.1L75.6,61.1l-0.4-0.5c0.1-0.1,0.3-0.1,0.4-0.2c0.1-0.1,0.2-0.2,0.2-0.3c0.1-0.1,0.1-0.2,0.1-0.4c0-0.1,0-0.3,0-0.4v-0.4
		h-0.6v-1.5h1.4v1.9c0,0.4-0.1,0.8-0.3,1.1C76.3,60.8,76,61,75.6,61.1L75.6,61.1z M135.3,59.1c-0.5,0-1-0.1-1.4-0.3
		c-0.4-0.2-0.8-0.5-1.1-0.9c-0.3-0.4-0.5-0.8-0.7-1.3c-0.2-0.5-0.2-1-0.2-1.6c0-0.5,0.1-1,0.2-1.5c0.2-0.4,0.4-0.9,0.7-1.2
		c0.3-0.3,0.7-0.6,1.1-0.8c0.5-0.2,0.9-0.3,1.4-0.3c0.5,0,1,0.1,1.4,0.3c0.4,0.2,0.8,0.4,1.1,0.8c0.3,0.3,0.5,0.7,0.7,1.2
		c0.2,0.5,0.2,1,0.2,1.5v0.4h-5.7c0,0.4,0.1,0.7,0.2,1c0.1,0.3,0.3,0.6,0.5,0.9c0.2,0.3,0.4,0.5,0.7,0.6c0.3,0.2,0.6,0.2,0.9,0.2
		c1,0.1,1.9-0.6,2.2-1.5h1c-0.2,0.7-0.6,1.4-1.2,1.8c-0.3,0.2-0.6,0.4-1,0.5C136,59,135.6,59.1,135.3,59.1L135.3,59.1z M135.2,52.2
		c-0.3,0-0.6,0.1-0.9,0.2c-0.3,0.1-0.5,0.3-0.7,0.5c-0.2,0.2-0.4,0.5-0.5,0.7c-0.1,0.3-0.2,0.6-0.2,0.9h4.5c0-0.3-0.1-0.6-0.2-0.9
		c-0.1-0.3-0.3-0.5-0.5-0.7c-0.2-0.2-0.4-0.4-0.7-0.5C135.8,52.2,135.5,52.2,135.2,52.2L135.2,52.2z M100.7,59.1
		c-0.5,0-1-0.1-1.4-0.3c-0.4-0.2-0.8-0.5-1.1-0.9c-0.3-0.4-0.5-0.8-0.7-1.3c-0.2-0.5-0.2-1-0.2-1.6c0-0.5,0.1-1,0.2-1.5
		c0.2-0.4,0.4-0.9,0.7-1.2c0.3-0.4,0.7-0.6,1.1-0.8c0.5-0.2,0.9-0.3,1.4-0.3c0.5,0,1,0.1,1.4,0.3c0.4,0.2,0.8,0.4,1.1,0.8
		c0.3,0.3,0.5,0.7,0.7,1.2c0.2,0.5,0.2,1,0.2,1.5v0.4h-5.7c0,0.4,0.1,0.7,0.2,1c0.1,0.3,0.3,0.6,0.5,0.9c0.2,0.3,0.4,0.5,0.7,0.6
		c0.3,0.2,0.6,0.2,0.9,0.2c1,0.1,1.9-0.6,2.2-1.5h1c-0.1,0.4-0.2,0.7-0.4,1.1c-0.2,0.3-0.4,0.6-0.7,0.8c-0.3,0.2-0.6,0.4-1,0.5
		C101.5,59,101.1,59.1,100.7,59.1z M100.6,52.2c-0.3,0-0.6,0.1-0.9,0.2c-0.3,0.1-0.5,0.3-0.7,0.5c-0.2,0.2-0.4,0.5-0.5,0.7
		c-0.1,0.3-0.2,0.6-0.2,0.9h4.5c0-0.3-0.1-0.6-0.2-0.9c-0.1-0.3-0.3-0.5-0.5-0.7c-0.2-0.2-0.4-0.4-0.7-0.5
		C101.3,52.2,101,52.2,100.6,52.2L100.6,52.2z M72.8,59.1c-0.2,0-0.4,0-0.6-0.1c-0.2,0-0.3-0.1-0.5-0.3c-0.1-0.1-0.3-0.3-0.3-0.5
		c-0.1-0.2-0.1-0.4-0.1-0.7v-5.3H70v-1h1.2V49h1.1v2.3h1.2v1h-1.2v4.9c0,0.3,0.1,0.5,0.2,0.7c0.2,0.1,0.4,0.2,0.6,0.2
		c0.1,0,0.2,0,0.2,0c0.1,0,0.2,0,0.3,0V59c-0.2,0-0.3,0.1-0.5,0.1C73.1,59.1,72.9,59.1,72.8,59.1L72.8,59.1z M65.7,59.1
		c-0.5,0-1-0.1-1.4-0.3c-0.4-0.2-0.8-0.5-1.1-0.9c-0.3-0.4-0.5-0.8-0.7-1.3c-0.2-0.5-0.2-1-0.2-1.6c0-0.5,0.1-1,0.2-1.5
		c0.2-0.4,0.4-0.9,0.7-1.2c0.3-0.4,0.7-0.6,1.1-0.8c0.5-0.2,0.9-0.3,1.4-0.3c0.5,0,1,0.1,1.4,0.3c0.4,0.2,0.8,0.4,1.1,0.8
		c0.3,0.3,0.5,0.7,0.7,1.2c0.2,0.5,0.2,1,0.2,1.5v0.4h-5.7c0,0.4,0.1,0.7,0.2,1c0.1,0.3,0.3,0.6,0.5,0.9c0.2,0.3,0.4,0.5,0.7,0.6
		c0.3,0.2,0.6,0.2,0.9,0.2c1,0.1,1.9-0.6,2.2-1.5h1c-0.2,0.7-0.6,1.4-1.2,1.8c-0.3,0.2-0.6,0.4-1,0.5C66.4,59,66,59.1,65.7,59.1
		L65.7,59.1z M65.6,52.2c-0.3,0-0.6,0.1-0.9,0.2c-0.3,0.1-0.5,0.3-0.7,0.5c-0.2,0.2-0.4,0.5-0.5,0.7c-0.1,0.3-0.2,0.6-0.2,0.9h4.5
		c0-0.3-0.1-0.6-0.2-0.9c-0.1-0.3-0.3-0.5-0.5-0.7c-0.2-0.2-0.4-0.4-0.7-0.5C66.2,52.2,65.9,52.2,65.6,52.2L65.6,52.2z M57.2,59.1
		c-0.5,0-1-0.1-1.4-0.3c-0.4-0.2-0.8-0.5-1.1-0.9c-0.3-0.4-0.5-0.8-0.7-1.3c-0.2-0.5-0.2-1-0.2-1.6c0-0.5,0.1-1,0.2-1.5
		c0.2-0.4,0.4-0.9,0.7-1.2c0.3-0.4,0.7-0.6,1.1-0.8c0.5-0.2,0.9-0.3,1.4-0.3c0.5,0,1,0.1,1.4,0.3c0.4,0.2,0.8,0.4,1.1,0.8
		c0.3,0.3,0.5,0.7,0.7,1.2c0.2,0.5,0.2,1,0.2,1.5v0.4h-5.7c0,0.4,0.1,0.7,0.2,1c0.1,0.3,0.3,0.6,0.5,0.9c0.2,0.3,0.4,0.5,0.7,0.6
		c0.3,0.2,0.6,0.2,0.9,0.2c1,0.1,1.9-0.6,2.2-1.5h1c-0.1,0.4-0.2,0.7-0.4,1.1c-0.4,0.6-1,1.1-1.7,1.3C57.9,59,57.6,59.1,57.2,59.1
		L57.2,59.1z M57.1,52.2c-0.3,0-0.6,0.1-0.9,0.2c-0.3,0.1-0.5,0.3-0.7,0.5c-0.2,0.2-0.4,0.5-0.5,0.7c-0.1,0.3-0.2,0.6-0.2,0.9h4.5
		c0-0.3-0.1-0.6-0.2-0.9c-0.1-0.3-0.3-0.5-0.5-0.7c-0.2-0.2-0.4-0.4-0.7-0.5C57.7,52.2,57.4,52.2,57.1,52.2L57.1,52.2z M120.1,59.1
		c-0.5,0-1-0.1-1.5-0.3c-0.4-0.2-0.8-0.5-1.1-0.8c-0.3-0.4-0.5-0.8-0.7-1.2c-0.3-1-0.3-2.1,0-3.1c0.1-0.5,0.4-0.9,0.7-1.3
		c0.3-0.4,0.7-0.6,1.1-0.9c0.5-0.2,1-0.3,1.5-0.3c0.5,0,1,0.1,1.5,0.3c0.4,0.2,0.8,0.5,1.1,0.9c0.3,0.4,0.5,0.8,0.7,1.3
		c0.3,1,0.3,2.1,0,3.1c-0.1,0.5-0.4,0.9-0.7,1.2c-0.3,0.4-0.7,0.6-1.1,0.8C121.1,59,120.6,59.1,120.1,59.1L120.1,59.1z M120.1,52.2
		c-0.3,0-0.7,0.1-1,0.2c-0.3,0.2-0.5,0.4-0.7,0.6c-0.2,0.3-0.4,0.6-0.5,0.9c-0.2,0.7-0.2,1.5,0,2.3c0.1,0.3,0.3,0.7,0.5,0.9
		c0.2,0.3,0.4,0.5,0.7,0.6c0.6,0.3,1.3,0.3,1.9,0c0.3-0.2,0.5-0.4,0.7-0.6c0.2-0.3,0.4-0.6,0.5-0.9c0.2-0.7,0.2-1.5,0-2.3
		c-0.1-0.3-0.3-0.7-0.5-0.9c-0.2-0.3-0.4-0.5-0.7-0.6C120.8,52.3,120.4,52.2,120.1,52.2L120.1,52.2z M90.6,58.9h-1.1V48.3h1.1v6.6
		l3.6-3.5h1.4l-2.8,2.8l2.9,4.8h-1.3l-2.3-4l-1.4,1.4V58.9L90.6,58.9z M47.4,58.9h-1.1v-5.1c0-0.3,0-0.5-0.1-0.8
		c-0.1-0.2-0.2-0.4-0.4-0.5c-0.1-0.1-0.3-0.2-0.5-0.3c-0.4-0.1-0.9-0.1-1.3,0.1c-0.3,0.1-0.5,0.3-0.7,0.5c-0.2,0.2-0.3,0.4-0.4,0.7
		c-0.1,0.2-0.2,0.5-0.2,0.7v4.6h-1.1v-7.6h1.1v1.2c0.2-0.2,0.3-0.4,0.5-0.6c0.2-0.2,0.4-0.3,0.6-0.4c0.2-0.1,0.4-0.2,0.6-0.2
		c0.2,0,0.4-0.1,0.6-0.1c0.4,0,0.8,0.1,1.1,0.3c0.4,0.3,0.7,0.6,0.9,1.1c0.4-0.7,1-1.2,1.8-1.3c0.2-0.1,0.4-0.1,0.7-0.1
		c0.3,0,0.7,0.1,1,0.2c0.3,0.1,0.5,0.3,0.8,0.5c0.2,0.2,0.4,0.5,0.5,0.7c0.1,0.3,0.2,0.6,0.2,0.9v5.5h-1.1v-5.1c0-0.3,0-0.5-0.1-0.8
		c-0.1-0.2-0.2-0.4-0.3-0.5c-0.1-0.1-0.3-0.2-0.5-0.3c-0.2,0-0.4-0.1-0.5-0.1c-0.2,0-0.5,0.1-0.7,0.2c-0.2,0.1-0.5,0.3-0.6,0.4
		c-0.2,0.2-0.4,0.4-0.5,0.7c-0.1,0.3-0.2,0.5-0.2,0.8L47.4,58.9L47.4,58.9z M128.1,58.9h-1.2l-2.8-7.6h1.2l2.2,6.3l2.3-6.3h1.2
		L128.1,58.9L128.1,58.9z M114.8,58.9h-1.1V48.3h1.1L114.8,58.9L114.8,58.9z M87.6,58.9h-1.1v-7.6h1.1L87.6,58.9L87.6,58.9z
		 M84.4,58.9h-1.1V48.3h1.1L84.4,58.9L84.4,58.9z M87.6,49.6h-1.1v-1.3h1.1L87.6,49.6L87.6,49.6z"/>
	<path id="Fill_5" class="st2" d="M54.6,7.6c-0.1-1.2-0.5-2.3-1.2-3.3c-1.2-1.9-3.1-3.2-5.2-3.8C45.7-0.3,43,0,40.7,1.2
		c-0.9,0.5-1.8,1.2-2.5,2C37.6,4,37,4.8,36.5,5.7c0.2,0.6,0.4,1.2,0.4,1.8c0.1,1.3,0,2.7-0.5,4c-0.8,2.1-2.1,4-3.8,5.5
		c-1.7,1.6-3.5,3-5.4,4.4c3.4,2.5,6.5,5.4,9.2,8.5c3.8-5.2,9.6-8.5,14.1-13c1.6-1.5,2.9-3.4,3.6-5.5C54.6,10.3,54.7,8.9,54.6,7.6"/>
	<path id="Combined_Shape" class="st3" d="M7.6,20.3c-1.9-1.4-3.6-3.1-5.2-5C0.7,13.2-0.2,10.5,0,7.7l18.1-1.9
		c-0.2,0.6-0.4,1.3-0.4,1.9c-0.2,2.8,0.7,5.6,2.6,7.7c1.6,1.9,3.5,3.5,5.5,5c0.5,0.4,0.9,0.7,1.4,1.1c-3.2,2.6-6.5,5.2-9,8.5
		C15.3,26.3,11.4,23.3,7.6,20.3z M2.7,2.4C4.3,1,6.4,0.2,8.5,0c2.2-0.2,4.4,0.4,6.2,1.6c1.5,1,2.7,2.5,3.4,4.1L0,7.7
		C0.2,5.7,1.2,3.8,2.7,2.4z"/>
	<path id="Fill_12" class="st4" d="M20.3,15.4c-1.9-2.1-2.8-4.9-2.6-7.7c0.2-2.1,1.2-4,2.9-5.3c1.2-1,2.6-1.7,4.1-2.1
		c0.3-0.1,0.5-0.1,0.8-0.2c0.2,0,0.4-0.1,0.6-0.1c1.4-0.1,2.7,0,4.1,0.3c2.3,0.5,4.2,1.9,5.6,3.8c0.7,1,1.1,2.2,1.2,3.4
		c0.1,1.3,0,2.7-0.5,4c-0.8,2.1-2.1,4-3.8,5.5c-1.7,1.6-3.6,3-5.4,4.5l-1.4-1.1C23.8,18.9,21.9,17.3,20.3,15.4"/>
</g>
</svg>
