<svg xmlns="http://www.w3.org/2000/svg" width="22.728" height="26.187" viewBox="0 0 22.728 26.187"><g transform="translate(-0.621 0.005)"><path d="M19.234.441a1.359,1.359,0,1,0-2,1.835,10.6,10.6,0,0,1-14.94,15A1.358,1.358,0,1,0,.461,19.282a13.2,13.2,0,0,0,6.911,3.3.272.272,0,0,1,.044.527,13.418,13.418,0,0,0-1.855.764,1.223,1.223,0,0,0,.555,2.309H17.607a1.223,1.223,0,0,0,.545-2.316,13.768,13.768,0,0,0-4.345-1.331.273.273,0,0,1-.051-.527A13.309,13.309,0,0,0,19.234.441Z" transform="translate(0.621 -0.005)" fill="#fff"/><path d="M8.695,17.389A8.694,8.694,0,0,1,5.367.662,8.694,8.694,0,1,1,8.695,17.389ZM9.24,2.444A6.813,6.813,0,0,0,2.446,9.237a.816.816,0,0,0,1.631,0A5.177,5.177,0,0,1,9.24,4.073a.815.815,0,0,0,0-1.63Z" transform="translate(1.342 0.732)" fill="#fff"/></g></svg>