<svg xmlns="http://www.w3.org/2000/svg" width="30.01" height="30.023" viewBox="0 0 30.01 30.023"><path d="M25.74,29.289,20.654,24.2a.307.307,0,0,0-.22-.092.314.314,0,0,0-.17.05,13.135,13.135,0,1,1,3.889-3.884.316.316,0,0,0,.041.392l5.086,5.086a2.5,2.5,0,1,1-3.54,3.534ZM5.631,5.64a10.621,10.621,0,1,0,18.131,7.508A10.618,10.618,0,0,0,5.631,5.64ZM6.653,19.662a7.331,7.331,0,0,1,12.862.307,9.916,9.916,0,0,1-12.862-.307ZM8.333,10A4.666,4.666,0,1,1,13,14.667,4.672,4.672,0,0,1,8.333,10Z" fill="#fff"/></svg>