<svg xmlns="http://www.w3.org/2000/svg" width="23.611" height="24" viewBox="0 0 23.611 24">
  <g id="engagement-ring-1" transform="translate(-0.194)">
    <path id="Path" d="M.5,4.25H4.93a.5.5,0,0,0,.47-.671L4.215.329A.5.5,0,0,0,3.749,0H1.681a.5.5,0,0,0-.466.329L.03,3.579A.5.5,0,0,0,.5,4.25Z" transform="translate(9.285)" fill="#fff"/>
    <path id="Path-2" data-name="Path" d="M.5,4.25h3.82a.5.5,0,0,0,.47-.329L5.971.671A.5.5,0,0,0,5.5,0H3.717A2.5,2.5,0,0,0,1.631,1.123L.082,3.475A.5.5,0,0,0,.5,4.25Z" transform="translate(2.805 0)" fill="#fff"/>
    <path id="Path-3" data-name="Path" d="M1.212,3.921a.5.5,0,0,0,.47.329H5.506a.5.5,0,0,0,.417-.775L4.37,1.123h0A2.5,2.5,0,0,0,2.284,0H.5A.5.5,0,0,0,.03.671Z" transform="translate(15.194 0)" fill="#fff"/>
    <path id="Path-4" data-name="Path" d="M15.333,7.791a.5.5,0,0,1-.229-.807L20.487.829A.5.5,0,0,0,20.111,0H16.694a.5.5,0,0,0-.472.336L14.016,6.677a.961.961,0,0,1-1,.642.616.616,0,0,1-.524-.817L14.522.664A.5.5,0,0,0,14.05,0H9.564a.5.5,0,0,0-.472.664L11.122,6.5a.616.616,0,0,1-.524.817.961.961,0,0,1-1-.642L7.39.336A.5.5,0,0,0,6.918,0H3.506A.5.5,0,0,0,3.13.829L8.506,6.984a.5.5,0,0,1-.229.807,11.987,11.987,0,0,0-8.26,9.277A1,1,0,0,0,1,18.25H2.019a1,1,0,0,0,.98-.8,8.987,8.987,0,0,1,17.614,0,1,1,0,0,0,.98.8h1.019a1,1,0,0,0,.983-1.182A11.987,11.987,0,0,0,15.333,7.791Z" transform="translate(0.194 5.75)" fill="#fff"/>
  </g>
</svg>
