<svg xmlns="http://www.w3.org/2000/svg" width="30" height="18.75" viewBox="0 0 30 18.75"><g transform="translate(0 -0.625)"><path d="M24.375,8.75H1.875A1.877,1.877,0,0,1,0,6.875v-5A1.877,1.877,0,0,1,1.875,0h22.5A1.877,1.877,0,0,1,26.25,1.875v5A1.877,1.877,0,0,1,24.375,8.75ZM3.125,2.5a.625.625,0,0,0-.625.625v2.5a.625.625,0,0,0,.625.625H17.5a.626.626,0,0,0,.625-.625v-2.5A.626.626,0,0,0,17.5,2.5Z" transform="translate(3.75 10.625)" fill="#fff"/><path d="M1.875,0A1.875,1.875,0,0,0,0,1.875v3.75A1.875,1.875,0,0,0,1.875,7.5.625.625,0,0,0,2.5,6.875V.625A.625.625,0,0,0,1.875,0Z" transform="translate(0 11.25)" fill="#fff"/><path d="M8.75,5.625a2.5,2.5,0,0,0,2.291-1.5.625.625,0,0,1,.573-.375h4.011a1.875,1.875,0,0,0,0-3.75H9.375A2.5,2.5,0,0,0,7.084,1.5a.625.625,0,0,1-.572.375H4.375A4.375,4.375,0,0,0,0,6.25v.938a.938.938,0,0,0,1.875,0V6.25A.625.625,0,0,1,2.5,5.625Z" transform="translate(1.25 1.875)" fill="#fff"/><path d="M1.875,3.75H3.75A1.875,1.875,0,0,0,3.75,0H1.875a1.875,1.875,0,0,0,0,3.75Z" transform="translate(20.625 0.625)" fill="#fff"/></g></svg>