<svg xmlns="http://www.w3.org/2000/svg" width="14.667" height="31.333" viewBox="0 0 14.667 31.333"><g transform="translate(-0.667 -0.333)"><path d="M0,7.333V12a.667.667,0,0,0,.667.667H3.08a.333.333,0,0,1,.332.305L4,20.056a.667.667,0,0,0,.667.611H10a.667.667,0,0,0,.667-.611l.591-7.084a.333.333,0,0,1,.332-.305H14A.667.667,0,0,0,14.667,12V7.333A7.333,7.333,0,0,0,0,7.333Z" transform="translate(0.667 11)" fill="#fff"/><circle cx="4.667" cy="4.667" r="4.667" transform="translate(3.333 0.333)" fill="#fff"/></g></svg>